<svg width="35" height="35" viewBox="0 0 35 35" fill="none" xmlns="http://www.w3.org/2000/svg">
<path fill-rule="evenodd" clip-rule="evenodd" d="M2 8.5C2 7.67157 2.67157 7 3.5 7H30.5C31.3284 7 32 7.67157 32 8.5C32 9.32843 31.3284 10 30.5 10H3.5C2.67157 10 2 9.32843 2 8.5Z" fill="white"/>
<path fill-rule="evenodd" clip-rule="evenodd" d="M14 4C13.6022 4 13.2206 4.15804 12.9393 4.43934C12.658 4.72064 12.5 5.10218 12.5 5.5V8.5C12.5 9.32843 11.8284 10 11 10C10.1716 10 9.5 9.32843 9.5 8.5V5.5C9.5 4.30653 9.97411 3.16193 10.818 2.31802C11.6619 1.47411 12.8065 1 14 1H20C21.1935 1 22.3381 1.47411 23.182 2.31802C24.0259 3.16193 24.5 4.30653 24.5 5.5V8.5C24.5 9.32843 23.8284 10 23 10C22.1716 10 21.5 9.32843 21.5 8.5V5.5C21.5 5.10218 21.342 4.72064 21.0607 4.43934C20.7794 4.15804 20.3978 4 20 4H14ZM6.5 7C7.32843 7 8 7.67157 8 8.5V29.5C8 29.8978 8.15804 30.2794 8.43934 30.5607C8.72064 30.842 9.10218 31 9.5 31H24.5C24.8978 31 25.2794 30.842 25.5607 30.5607C25.842 30.2794 26 29.8978 26 29.5V8.5C26 7.67157 26.6716 7 27.5 7C28.3284 7 29 7.67157 29 8.5V29.5C29 30.6935 28.5259 31.8381 27.682 32.682C26.8381 33.5259 25.6935 34 24.5 34H9.5C8.30653 34 7.16193 33.5259 6.31802 32.682C5.47411 31.8381 5 30.6935 5 29.5V8.5C5 7.67157 5.67157 7 6.5 7Z" fill="white"/>
<path fill-rule="evenodd" clip-rule="evenodd" d="M14 14.5C14.8284 14.5 15.5 15.1716 15.5 16V25C15.5 25.8284 14.8284 26.5 14 26.5C13.1716 26.5 12.5 25.8284 12.5 25V16C12.5 15.1716 13.1716 14.5 14 14.5Z" fill="white"/>
<path fill-rule="evenodd" clip-rule="evenodd" d="M20 14.5C20.8284 14.5 21.5 15.1716 21.5 16V25C21.5 25.8284 20.8284 26.5 20 26.5C19.1716 26.5 18.5 25.8284 18.5 25V16C18.5 15.1716 19.1716 14.5 20 14.5Z" fill="white"/>
</svg>
